<svg width="123" height="19" viewBox="0 0 123 19" fill="none" xmlns="http://www.w3.org/2000/svg">
<path d="M121.918 9.22067C122.286 8.89933 122.473 8.35362 122.473 7.5984C122.473 7.13055 122.362 6.65703 122.143 6.1913C121.925 5.72769 121.609 5.3023 121.202 4.92717C120.796 4.55133 120.298 4.25122 119.723 4.03747C119.159 3.80673 118.509 3.68994 117.79 3.68994C116.742 3.68994 115.795 3.92281 114.976 4.38075C114.168 4.82596 113.525 5.44528 113.063 6.22103C112.601 6.99748 112.367 7.89284 112.367 8.88234C112.367 9.62553 112.491 10.3291 112.736 10.9739C112.981 11.6194 113.339 12.2012 113.802 12.7059C114.277 13.1942 114.862 13.5871 115.538 13.8737C116.214 14.1604 116.993 14.3055 117.853 14.3055C118.624 14.3055 119.319 14.2184 119.919 14.0479C120.537 13.8759 121.028 13.6635 121.378 13.4165C121.759 13.1475 121.945 12.8963 121.945 12.6485C121.945 12.5233 121.928 12.4043 121.896 12.2939C121.865 12.1828 121.802 12.0639 121.712 11.9422C121.626 11.7772 121.505 11.6668 121.35 11.6123C121.21 11.5451 121.061 11.5288 120.903 11.5642C120.779 11.5953 120.646 11.6491 120.509 11.7249C120.507 11.7263 120.505 11.727 120.503 11.7284C120.396 11.7949 120.267 11.8629 120.118 11.9301C119.968 11.9981 119.788 12.0674 119.582 12.1354C119.38 12.2026 119.139 12.2571 118.866 12.2982C118.593 12.3392 118.259 12.3598 117.873 12.3598C117.36 12.3598 116.84 12.2437 116.327 12.0143C115.828 11.7864 115.405 11.4594 115.071 11.0475C114.78 10.6603 114.626 10.1988 114.613 9.67437H120.576C121.101 9.67437 121.551 9.52149 121.916 9.21855L121.918 9.22067ZM120.437 7.61963C120.437 7.8617 120.39 8.01812 120.299 8.06413C120.227 8.10377 120.078 8.1519 119.776 8.1519H114.615C114.628 7.70669 114.761 7.30042 115.012 6.94369C115.292 6.5452 115.679 6.2281 116.163 6.00019C116.661 5.75813 117.217 5.63568 117.812 5.63568C118.323 5.63568 118.779 5.72981 119.167 5.91738C119.566 6.10282 119.882 6.34984 120.108 6.6542C120.329 6.94015 120.438 7.25583 120.438 7.61963H120.437Z" fill="#130C49"/>
<path d="M110.163 3.87061C110.011 3.82461 109.83 3.80196 109.622 3.80196L107.769 3.82956V1.12153C107.769 0.903525 107.747 0.727284 107.701 0.586432C107.648 0.406651 107.534 0.269339 107.361 0.179448C107.198 0.0803568 106.976 0.0322266 106.683 0.0322266C106.39 0.0322266 106.171 0.0817724 106.019 0.182987C105.863 0.272878 105.758 0.408775 105.706 0.586432C105.66 0.742148 105.638 0.929714 105.638 1.14347V3.83451L104.688 3.82461H104.686C104.365 3.82461 104.124 3.91308 103.97 4.08791C103.82 4.2599 103.746 4.51612 103.746 4.87073C103.746 5.22534 103.802 5.49218 103.918 5.66134C103.919 5.66417 103.922 5.6663 103.923 5.66842C104.063 5.84749 104.305 5.93809 104.645 5.93809L105.637 5.92818V10.6655C105.637 11.3216 105.702 11.8857 105.832 12.3422C105.965 12.7959 106.19 13.1725 106.502 13.462C106.811 13.7486 107.205 13.9624 107.674 14.0976C108.146 14.2299 108.725 14.2965 109.393 14.2965C109.585 14.2965 109.759 14.2731 109.91 14.2278C110.103 14.1896 110.247 14.0863 110.335 13.9249C110.432 13.7571 110.48 13.5299 110.48 13.2284C110.48 12.9432 110.441 12.7315 110.358 12.5794C110.269 12.4173 110.136 12.3069 109.96 12.2531C109.806 12.2063 109.609 12.1823 109.372 12.1823C109.057 12.1823 108.787 12.1681 108.57 12.1405C108.376 12.1157 108.216 12.0542 108.098 11.9586C107.994 11.8616 107.909 11.718 107.848 11.5318C107.796 11.3145 107.769 11.0229 107.769 10.6655V5.93172L109.645 5.96003C109.855 5.96003 110.039 5.93597 110.192 5.88925C110.368 5.83475 110.501 5.72504 110.593 5.55729C110.673 5.39238 110.712 5.16801 110.712 4.87073C110.712 4.57346 110.665 4.35191 110.568 4.19762C110.48 4.02208 110.341 3.91025 110.165 3.87203L110.163 3.87061Z" fill="#130C49"/>
<path d="M101.685 3.84375C101.545 3.73971 101.332 3.68945 101.033 3.68945C100.674 3.68945 100.401 3.77368 100.221 3.94001C100.048 4.09714 99.9691 4.35761 99.9853 4.71293L100.007 5.17724C99.8276 4.97481 99.6302 4.78866 99.418 4.62091C99.0968 4.33992 98.7056 4.11555 98.2585 3.95559C97.8078 3.77934 97.2581 3.68945 96.625 3.68945C95.9465 3.68945 95.295 3.8303 94.6873 4.10847C94.0973 4.38522 93.5653 4.76884 93.1054 5.24873C92.6449 5.72933 92.2806 6.29769 92.0209 6.93895C91.7769 7.56464 91.6523 8.24271 91.6523 8.95476C91.6523 9.6668 91.7761 10.3725 92.0209 11.0145C92.2791 11.6536 92.6357 12.2276 93.0821 12.7231C93.5426 13.2178 94.0753 13.6092 94.6668 13.8867C95.273 14.1641 95.9317 14.305 96.6243 14.305C97.3169 14.305 97.9387 14.1932 98.436 13.9709C98.9256 13.7373 99.3288 13.4705 99.6358 13.1739C99.7766 13.031 99.9018 12.8951 100.009 12.767L99.9641 13.341C99.9641 13.3495 99.9641 13.358 99.9641 13.3665C99.9952 13.6687 100.087 13.898 100.236 14.0495C100.238 14.0509 100.24 14.053 100.242 14.0544C100.411 14.2087 100.663 14.2838 101.013 14.2838C101.308 14.2838 101.526 14.2349 101.678 14.1344C101.835 14.0438 101.941 13.9008 101.993 13.709C102.038 13.5413 102.061 13.3488 102.061 13.1386V4.89696C102.061 4.65772 102.038 4.45175 101.993 4.2833C101.942 4.09502 101.839 3.94638 101.685 3.84163L101.685 3.84375ZM99.8785 8.9767C99.8785 9.60452 99.7427 10.1708 99.4731 10.6606C99.2192 11.1348 98.8598 11.5191 98.4028 11.8044C97.9642 12.0868 97.4718 12.2304 96.9398 12.2304C96.3066 12.2304 95.7407 12.0931 95.2624 11.8242C94.7934 11.5389 94.4199 11.1546 94.1524 10.6811C93.8843 10.192 93.7478 9.63354 93.7478 9.01988C93.7478 8.40622 93.8836 7.82653 94.1524 7.33744C94.4206 6.84906 94.7877 6.45694 95.2433 6.1717C95.7102 5.87442 96.267 5.72437 96.8973 5.72437C97.43 5.72437 97.9224 5.86735 98.3653 6.15259C98.8195 6.42297 99.1852 6.8073 99.4555 7.29922C99.7363 7.77274 99.8785 8.33756 99.8785 8.97741V8.9767Z" fill="#130C49"/>
<path d="M89.4249 3.81666C89.2735 3.71756 89.0563 3.66943 88.7613 3.66943C88.4663 3.66943 88.2279 3.70907 88.061 3.79259C87.9018 3.88107 87.7943 4.01555 87.7412 4.19179C87.6952 4.34467 87.6719 4.5287 87.6719 4.73821V13.2113C87.6719 13.4208 87.6952 13.6048 87.7412 13.7577C87.7943 13.9339 87.9018 14.0684 88.0567 14.1547C88.2208 14.2531 88.4444 14.3013 88.7401 14.3013C89.0358 14.3013 89.2495 14.2609 89.3931 14.1809C89.5692 14.0925 89.6853 13.9573 89.739 13.7789C89.785 13.626 89.8084 13.442 89.8084 13.2325V4.77997C89.8084 4.5563 89.785 4.36591 89.739 4.21231C89.6867 4.03749 89.5806 3.90442 89.4242 3.81595L89.4249 3.81666Z" fill="#130C49"/>
<path d="M89.5022 0.175909C89.3253 0.0789412 89.0826 0.0322266 88.76 0.0322266C88.4375 0.0322266 88.1785 0.0782334 88.0017 0.173786C87.8128 0.260845 87.6833 0.408775 87.6161 0.610497C87.5546 0.779661 87.5234 0.987753 87.5234 1.2277C87.5234 1.46764 87.5461 1.6729 87.5906 1.85197C87.5913 1.85551 87.5928 1.85905 87.5935 1.86259C87.66 2.06219 87.7859 2.22215 87.9677 2.33752C87.9705 2.33894 87.9734 2.34106 87.9755 2.34248C88.1524 2.43945 88.4021 2.48616 88.7381 2.48616C89.0741 2.48616 89.3239 2.43945 89.5007 2.34248C89.6882 2.24055 89.8106 2.09192 89.863 1.90081C89.9231 1.71962 89.9535 1.50728 89.9535 1.26946C89.9535 1.03164 89.9231 0.820713 89.8637 0.639517C89.8106 0.434256 89.6889 0.27854 89.5007 0.175909H89.5022Z" fill="#130C49"/>
<path d="M85.1708 3.78281C84.7265 3.56056 84.3862 3.5372 84.1577 3.71274C83.9582 3.86633 83.7743 4.1176 83.6081 4.46512L80.6637 11.4263L77.6542 4.25349C77.4965 3.88968 77.2941 3.67805 77.0536 3.62426C76.8237 3.55985 76.5499 3.60657 76.24 3.76157C75.8983 3.93286 75.684 4.11972 75.5871 4.33064C75.4817 4.54157 75.5156 4.82964 75.6903 5.21185L79.5869 13.704C79.5869 13.704 79.5898 13.7097 79.5912 13.7118C79.703 13.9199 79.8445 14.0671 80.0157 14.1527C80.1883 14.2313 80.4062 14.271 80.6637 14.271C80.9389 14.271 81.1674 14.2228 81.3421 14.1273C81.5246 14.0275 81.6598 13.8767 81.7397 13.6835L85.6144 5.33925C85.7495 5.05472 85.8174 4.78646 85.8174 4.54086C85.8174 4.24429 85.5995 3.98878 85.1708 3.7821V3.78281Z" fill="#130C49"/>
<path d="M73.4666 3.84375C73.3272 3.73971 73.1143 3.68945 72.815 3.68945C72.4563 3.68945 72.1833 3.77368 72.0022 3.94001C71.8295 4.09714 71.7503 4.35761 71.7666 4.71293L71.7885 5.17724C71.6088 4.97481 71.4114 4.78866 71.1992 4.62091C70.878 4.33992 70.4868 4.11555 70.0397 3.95559C69.5891 3.77934 69.0394 3.68945 68.4062 3.68945C67.7278 3.68945 67.0762 3.8303 66.4685 4.10847C65.8785 4.38522 65.3465 4.76884 64.8867 5.24873C64.4261 5.72933 64.0618 6.29769 63.8022 6.93895C63.5574 7.56464 63.4336 8.24271 63.4336 8.95476C63.4336 9.6668 63.5574 10.3725 63.8022 11.0145C64.0604 11.6529 64.4169 12.2276 64.8633 12.7231C65.3239 13.2178 65.8566 13.6092 66.448 13.8867C67.0543 14.1641 67.7129 14.305 68.4055 14.305C69.0981 14.305 69.7199 14.1932 70.2173 13.9709C70.7068 13.7373 71.1101 13.4705 71.4171 13.1739C71.5579 13.031 71.6831 12.8951 71.7906 12.767L71.7454 13.341C71.7454 13.3495 71.7454 13.358 71.7454 13.3672C71.7765 13.6694 71.8684 13.8987 72.0177 14.0495C72.0191 14.0516 72.0213 14.053 72.0234 14.0544C72.1925 14.2087 72.4443 14.2838 72.7938 14.2838C73.0895 14.2838 73.3067 14.2349 73.4588 14.1344C73.6165 14.0438 73.7227 13.9008 73.7743 13.709C73.8196 13.5413 73.8422 13.3495 73.8422 13.1386V4.89696C73.8422 4.65772 73.8196 4.45175 73.7743 4.2833C73.7234 4.09502 73.6201 3.94638 73.4666 3.84163V3.84375ZM71.6605 8.9767C71.6605 9.60452 71.5246 10.1708 71.2551 10.6606C71.0011 11.1341 70.6417 11.5184 70.1854 11.8044C69.7468 12.0868 69.2544 12.2304 68.7217 12.2304C68.0886 12.2304 67.5226 12.0931 67.0444 11.8242C66.5754 11.5389 66.2018 11.1539 65.9344 10.6811C65.6663 10.192 65.5298 9.63354 65.5298 9.01988C65.5298 8.40622 65.6656 7.82582 65.9344 7.33744C66.2025 6.84906 66.569 6.45694 67.0253 6.1717C67.4922 5.87442 68.049 5.72437 68.6793 5.72437C69.2113 5.72437 69.7037 5.86735 70.1472 6.15259C70.6014 6.42297 70.9672 6.8073 71.2374 7.29851C71.5183 7.77203 71.6605 8.33685 71.6605 8.97741V8.9767Z" fill="#130C49"/>
<path d="M60.4564 4.92668C60.0503 4.55084 59.5515 4.25074 58.9771 4.03698C58.4133 3.80624 57.7631 3.68945 57.0437 3.68945C55.9959 3.68945 55.0487 3.92232 54.2294 4.38026C53.4222 4.82547 52.7792 5.44479 52.3172 6.22054C51.8553 6.99699 51.6211 7.89235 51.6211 8.88186C51.6211 9.62504 51.7449 10.3293 51.9897 10.9734C52.2344 11.6189 52.5917 12.2007 53.0558 12.7054C53.5319 13.1938 54.1155 13.5866 54.7919 13.8732C55.4682 14.1599 56.2471 14.305 57.1073 14.305C57.8777 14.305 58.5724 14.2179 59.1731 14.0474C59.7914 13.8754 60.2823 13.663 60.6318 13.416C61.0131 13.147 61.1985 12.8958 61.1985 12.648C61.1985 12.5235 61.1822 12.4039 61.1511 12.2934C61.1192 12.1816 61.057 12.0634 60.9664 11.9417C60.8808 11.7767 60.7591 11.6663 60.6042 11.6118C60.4649 11.5446 60.3156 11.5283 60.1571 11.5637C60.0333 11.5948 59.901 11.6486 59.7638 11.7244C59.7617 11.7258 59.7595 11.7265 59.7574 11.7279C59.6513 11.7944 59.5218 11.8624 59.3726 11.9296C59.2226 11.9976 59.0422 12.0669 58.837 12.1349C58.6347 12.2021 58.3942 12.2566 58.1211 12.2977C57.8473 12.3387 57.5134 12.3593 57.1278 12.3593C56.6149 12.3593 56.0943 12.2432 55.5814 12.0139C55.0833 11.7859 54.6596 11.4589 54.3257 11.047C54.0342 10.6598 53.8807 10.1984 53.8679 9.67388H59.831C60.3552 9.67388 60.8051 9.521 61.1702 9.21806C61.5388 8.89672 61.7255 8.35101 61.7255 7.59579C61.7255 7.12793 61.6145 6.65442 61.3951 6.18869C61.1772 5.72508 60.861 5.29969 60.4549 4.92456L60.4564 4.92668ZM59.6909 7.61985C59.6909 7.86192 59.6435 8.01905 59.553 8.06435C59.4808 8.10399 59.3315 8.15212 59.0302 8.15212H53.8701C53.8828 7.70691 54.0158 7.30064 54.2669 6.94391C54.5471 6.54542 54.9333 6.22832 55.4165 6.00041C55.916 5.75835 56.4706 5.6359 57.0656 5.6359C57.5771 5.6359 58.0327 5.73003 58.421 5.9176C58.82 6.10304 59.1356 6.35006 59.3619 6.65442C59.5834 6.94037 59.6916 7.25605 59.6916 7.61985H59.6909Z" fill="#130C49"/>
<path d="M49.9276 3.80599C49.5548 3.66514 49.2478 3.6524 49.0122 3.77131C48.7971 3.8881 48.6245 4.12733 48.4851 4.50247L46.2291 10.5088L44.1549 4.53219C44.1216 4.40267 44.0572 4.28022 43.9632 4.16838C43.8818 4.05585 43.77 3.95888 43.6292 3.8796C43.4934 3.79538 43.3045 3.75432 43.0534 3.75432C42.8341 3.75432 42.648 3.79608 42.5016 3.87819C42.3551 3.96029 42.2391 4.06929 42.1535 4.20731C42.0941 4.31207 42.0417 4.42602 41.9965 4.54776L39.901 10.4685L37.6436 4.39842C37.5169 4.04806 37.3401 3.8336 37.1158 3.76211C36.8986 3.68 36.6128 3.70761 36.2471 3.84634C36.0164 3.92349 35.8431 4.01621 35.7158 4.12875C35.7136 4.13087 35.7108 4.133 35.7087 4.13512C35.5877 4.25686 35.5177 4.40691 35.5 4.58103C35.5 4.58599 35.5 4.59023 35.5 4.59519C35.5 4.75303 35.5368 4.94059 35.6125 5.16921C35.6132 5.17133 35.6139 5.17417 35.6153 5.17629L38.866 13.5085C38.8964 13.6423 38.9417 13.7704 39.0011 13.89C39.0047 13.8964 39.0082 13.9027 39.0125 13.9091C39.0952 14.0266 39.2049 14.12 39.3315 14.1837C39.478 14.2658 39.6711 14.3076 39.9045 14.3076C40.121 14.3076 40.2908 14.2757 40.4238 14.2113C40.5646 14.1561 40.6714 14.0577 40.7422 13.9176C40.8164 13.7966 40.8836 13.6458 40.941 13.4717L43.0746 7.33649L45.1906 13.4773C45.2486 13.6231 45.3144 13.764 45.3872 13.8956C45.3887 13.8978 45.3894 13.8999 45.3908 13.902C45.4743 14.0372 45.5853 14.1398 45.7204 14.2078C45.8534 14.275 46.0254 14.3076 46.2461 14.3076C46.4668 14.3076 46.6415 14.2665 46.7745 14.1851C46.9238 14.1165 47.0342 14.0195 47.1007 13.902C47.1749 13.7817 47.2358 13.6592 47.2804 13.5403L50.5339 5.20035C50.6924 4.81673 50.7108 4.52087 50.5912 4.29579C50.4759 4.08062 50.2516 3.91499 49.9283 3.8067L49.9276 3.80599Z" fill="#130C49"/>
<mask id="mask0_9477_1413" style="mask-type:luminance" maskUnits="userSpaceOnUse" x="0" y="0" width="30" height="19">
<path d="M28.9007 3.18753L23.7292 0.180557C22.8597 -0.323525 21.7711 0.303619 21.7711 1.3061V8.90471L18.1005 6.79088C16.1325 5.65871 13.7124 5.66202 11.7505 6.79751L8.09606 8.91181V1.30373C8.09606 0.300779 7.01075 -0.326364 6.14127 0.17819L0.96935 3.18564C0.36824 3.53447 0 4.17865 0 4.87206V12.0158C0 12.5133 0.123062 12.9913 0.35546 13.413H0.355933C0.588331 13.8438 0.929592 14.2115 1.35463 14.4837L4.01987 16.1834L6.06081 17.484C7.28575 18.2641 8.86567 18.2011 10.0239 17.3283L10.1763 17.209C10.191 17.1986 10.2052 17.1877 10.2203 17.1768L13.2973 14.8278C14.1971 14.1401 15.6705 14.1401 16.5703 14.8278L19.6374 17.1664C19.6421 17.1702 19.6469 17.1735 19.6516 17.1768L19.8428 17.3259C21.001 18.2025 22.5809 18.2617 23.8059 17.4821L25.8473 16.1805L28.5192 14.4775C28.9404 14.2054 29.2788 13.8376 29.5112 13.4126C29.7436 12.988 29.8695 12.5123 29.8695 12.0111V4.87395H29.87C29.87 4.18007 29.5013 3.53636 28.9007 3.18753Z" fill="white"/>
</mask>
<g mask="url(#mask0_9477_1413)">
<path d="M28.9007 3.18753L23.7292 0.180557C22.8597 -0.323525 21.7711 0.303619 21.7711 1.3061V8.90471L18.1005 6.79088C16.1325 5.65871 13.7124 5.66202 11.7505 6.79751L8.09606 8.91181V1.30373C8.09606 0.300779 7.01075 -0.326364 6.14127 0.17819L0.96935 3.18564C0.36824 3.53447 0 4.17865 0 4.87206V12.0158C0 12.5133 0.123062 12.9913 0.35546 13.413H0.355933C0.588331 13.8438 0.929592 14.2115 1.35463 14.4837L4.01987 16.1834L6.06081 17.484C7.28575 18.2641 8.86567 18.2011 10.0239 17.3283L10.1763 17.209C10.191 17.1986 10.2052 17.1877 10.2203 17.1768L13.2973 14.8278C14.1971 14.1401 15.6705 14.1401 16.5703 14.8278L19.6374 17.1664C19.6421 17.1702 19.6469 17.1735 19.6516 17.1768L19.8428 17.3259C21.001 18.2025 22.5809 18.2617 23.8059 17.4821L25.8473 16.1805L28.5192 14.4775C28.9404 14.2054 29.2788 13.8376 29.5112 13.4126C29.7436 12.988 29.8695 12.5123 29.8695 12.0111V4.87395H29.87C29.87 4.18007 29.5013 3.53636 28.9007 3.18753Z" fill="url(#paint0_linear_9477_1413)"/>
<path d="M21.8141 13.5389V16.1038C21.8141 16.8956 21.248 17.5412 20.5608 17.5412C20.2919 17.5412 19.9544 17.4063 19.6383 17.1664L16.5712 14.8277C15.6714 14.14 14.198 14.14 13.2982 14.8277L10.2212 17.1768C9.91494 17.4078 9.7171 17.474 9.42553 17.4764C8.70988 17.4821 8.07375 16.9491 8.07422 16.1076V13.5498L12.4718 10.7108C13.9788 9.73767 15.9076 9.73767 17.4113 10.7108L21.8141 13.4854V13.5389Z" fill="url(#paint1_linear_9477_1413)"/>
<path d="M21.7734 8.90472L21.7833 13.5782L17.4118 10.7833C15.9081 9.82059 13.9793 9.82059 12.4727 10.7833L8.08984 13.5834L8.09694 8.91182L11.7524 6.79705C13.7143 5.66156 16.1338 5.65825 18.1024 6.79042L21.7739 8.90472H21.7734Z" fill="url(#paint2_linear_9477_1413)"/>
<path d="M29.868 4.87375V12.0104C29.868 12.5116 29.7421 12.9878 29.5097 13.4124L21.7695 8.90687V1.30543C21.7695 0.302944 22.8582 -0.324199 23.7276 0.179882L28.8991 3.18733C29.4997 3.53616 29.8684 4.1794 29.8684 4.87375H29.868Z" fill="url(#paint3_linear_9477_1413)"/>
<path d="M8.09606 1.30375V8.91182L0.35546 13.4131C0.123062 12.9913 0 12.5133 0 12.0158V4.87208C0 4.17867 0.36824 3.53449 0.96935 3.18565L6.1408 0.178678C7.01028 -0.325876 8.09559 0.301267 8.09559 1.30422L8.09606 1.30375Z" fill="url(#paint4_linear_9477_1413)"/>
<path d="M20.4531 17.4483C21.1399 17.4483 21.784 16.9073 21.784 16.124L21.7807 13.5586L25.8688 16.1666L23.806 17.4819C22.5811 18.2619 21.0012 18.2023 19.843 17.3257L19.6484 17.1738C19.9405 17.3716 20.1852 17.4483 20.4545 17.4483H20.454H20.4531Z" fill="url(#paint5_linear_9477_1413)"/>
<path d="M29.5097 13.4122C29.2773 13.8372 28.9384 14.205 28.5176 14.4771L25.8457 16.1801L21.7795 13.5778L21.7695 8.9043L29.5101 13.4117L29.5097 13.4122Z" fill="url(#paint6_linear_9477_1413)"/>
<path d="M8.09573 16.1236C8.09573 16.9069 8.74417 17.5251 9.42669 17.4479C9.72961 17.4138 9.96438 17.3689 10.21 17.1829L10.024 17.3282C8.86581 18.201 7.28588 18.2639 6.06094 17.4839L4.01953 16.1823V16.179L8.0962 13.5771V16.1226V16.1231L8.09573 16.1236Z" fill="url(#paint7_linear_9477_1413)"/>
<path d="M8.0956 8.91064V13.5775L4.01941 16.1798V16.1831L1.35416 14.4835C0.929127 14.2113 0.587393 13.8426 0.355469 13.4114L8.09607 8.91064H8.0956Z" fill="url(#paint8_linear_9477_1413)"/>
</g>
<defs>
<linearGradient id="paint0_linear_9477_1413" x1="16.0695" y1="19.5964" x2="13.7176" y2="-3.47013" gradientUnits="userSpaceOnUse">
<stop stop-color="#75BE2C"/>
<stop offset="0.86" stop-color="#9DC03B"/>
</linearGradient>
<linearGradient id="paint1_linear_9477_1413" x1="14.9439" y1="9.98096" x2="14.9439" y2="17.5412" gradientUnits="userSpaceOnUse">
<stop stop-color="#238D37"/>
<stop offset="0.94" stop-color="#35537F"/>
</linearGradient>
<linearGradient id="paint2_linear_9477_1413" x1="14.1426" y1="6.06483" x2="15.315" y2="13.7633" gradientUnits="userSpaceOnUse">
<stop stop-color="#67D84D"/>
<stop offset="1" stop-color="#348522"/>
</linearGradient>
<linearGradient id="paint3_linear_9477_1413" x1="25.8192" y1="0.00191562" x2="25.8192" y2="13.4119" gradientUnits="userSpaceOnUse">
<stop stop-color="#E4D00A"/>
<stop offset="0.56" stop-color="#C4D132"/>
</linearGradient>
<linearGradient id="paint4_linear_9477_1413" x1="4.0478" y1="0.000238295" x2="4.0478" y2="13.4131" gradientUnits="userSpaceOnUse">
<stop stop-color="#E4D00A"/>
<stop offset="0.56" stop-color="#C4D132"/>
</linearGradient>
<linearGradient id="paint5_linear_9477_1413" x1="22.7581" y1="13.5586" x2="22.7581" y2="18.0272" gradientUnits="userSpaceOnUse">
<stop stop-color="#8AB11B"/>
<stop offset="1" stop-color="#6EAF02"/>
</linearGradient>
<linearGradient id="paint6_linear_9477_1413" x1="26.0128" y1="8.16072" x2="25.0756" y2="15.6879" gradientUnits="userSpaceOnUse">
<stop stop-color="#75BE2C"/>
<stop offset="0.86" stop-color="#9DC03B"/>
</linearGradient>
<linearGradient id="paint7_linear_9477_1413" x1="7.11502" y1="13.5776" x2="7.11502" y2="18.0287" gradientUnits="userSpaceOnUse">
<stop stop-color="#8AB11B"/>
<stop offset="1" stop-color="#6EAF02"/>
</linearGradient>
<linearGradient id="paint8_linear_9477_1413" x1="4.76535" y1="8.19736" x2="3.84286" y2="17.2472" gradientUnits="userSpaceOnUse">
<stop stop-color="#75BE2C"/>
<stop offset="0.86" stop-color="#9DC03B"/>
</linearGradient>
</defs>
</svg>
